<?xml version="1.0" standalone="no"?><!DOCTYPE svg PUBLIC "-//W3C//DTD SVG 1.1//EN" "http://www.w3.org/Graphics/SVG/1.1/DTD/svg11.dtd"><svg t="1712480516226" class="icon" viewBox="0 0 1024 1024" version="1.1" xmlns="http://www.w3.org/2000/svg" p-id="5304" xmlns:xlink="http://www.w3.org/1999/xlink" width="200" height="200"><path d="M128 341.333333a170.666667 170.666667 0 0 1 170.666667-170.666666h341.333333a170.666667 170.666667 0 0 1 170.666667 170.666666v341.333334a170.666667 170.666667 0 0 1-170.666667 170.666666H298.666667a170.666667 170.666667 0 0 1-170.666667-170.666666V341.333333z" fill="#FFD45A" p-id="5305"></path><path d="M640 213.333333H298.666667a128 128 0 0 0-128 128v341.333334a128 128 0 0 0 128 128h341.333333a128 128 0 0 0 128-128V341.333333a128 128 0 0 0-128-128zM298.666667 170.666667a170.666667 170.666667 0 0 0-170.666667 170.666666v341.333334a170.666667 170.666667 0 0 0 170.666667 170.666666h341.333333a170.666667 170.666667 0 0 0 170.666667-170.666666V341.333333a170.666667 170.666667 0 0 0-170.666667-170.666666H298.666667z" fill="#593A24" p-id="5306"></path><path d="M298.666667 469.333333v320a42.666667 42.666667 0 0 0 42.666666 42.666667h512a42.666667 42.666667 0 0 0 42.666667-42.666667V384a42.666667 42.666667 0 0 0-42.666667-42.666667h-195.669333a42.666667 42.666667 0 0 0-30.165333 12.501334l-60.330667 60.330666a42.666667 42.666667 0 0 1-30.165333 12.501334H341.333333a42.666667 42.666667 0 0 0-42.666666 42.666666z" fill="#FFFFFF" p-id="5307"></path><path d="M657.664 362.666667a21.333333 21.333333 0 0 0-15.061333 6.229333l-60.373334 60.373333a64 64 0 0 1-45.226666 18.730667H341.333333a21.333333 21.333333 0 0 0-21.333333 21.333333v320a21.333333 21.333333 0 0 0 21.333333 21.333334h512a21.333333 21.333333 0 0 0 21.333334-21.333334V384a21.333333 21.333333 0 0 0-21.333334-21.333333h-195.669333z m-45.226667-23.893334a64 64 0 0 1 45.226667-18.773333H853.333333A64 64 0 0 1 917.333333 384v405.333333A64 64 0 0 1 853.333333 853.333333H341.333333a64 64 0 0 1-64-64V469.333333A64 64 0 0 1 341.333333 405.333333h195.669334a21.333333 21.333333 0 0 0 15.061333-6.229333l60.373333-60.373333z" fill="#593A24" p-id="5308"></path><path d="M426.666667 682.666667v128h362.666666v-170.666667a42.666667 42.666667 0 0 0-42.666666-42.666667h-96.597334a42.624 42.624 0 0 0-19.072 4.522667l-67.328 33.621333a42.624 42.624 0 0 1-19.072 4.522667H469.333333a42.666667 42.666667 0 0 0-42.666666 42.666667z" fill="#FCE5A0" p-id="5309"></path></svg>